<svg width="24" height="24" viewBox="0 0 24 24" fill="none" xmlns="http://www.w3.org/2000/svg">
<path d="M12 6C8.6875 6 6 8.6875 6 12C6 15.3125 8.6875 18 12 18C12.5312 18 13 18.4688 13 19C13 19.5625 12.5312 20 12 20C7.5625 20 4 16.4375 4 12C4 7.59375 7.5625 4 12 4C16.4062 4 20 7.59375 20 12V13C20 14.6562 18.6562 16 17 16C16.0625 16 15.25 15.5938 14.6875 14.9688C14 15.625 13.0312 16 12 16C9.78125 16 8 14.2188 8 12C8 9.8125 9.78125 8 12 8C12.8438 8 13.6562 8.28125 14.3125 8.78125C14.5 8.625 14.7188 8.5 15 8.5C15.5312 8.5 16 8.96875 16 9.5V12V13C16 13.5625 16.4375 14 17 14C17.5312 14 18 13.5625 18 13V12C18 8.6875 15.3125 6 12 6ZM14 12C14 11.3125 13.5938 10.6562 13 10.2812C12.375 9.9375 11.5938 9.9375 11 10.2812C10.375 10.6562 10 11.3125 10 12C10 12.7188 10.375 13.375 11 13.75C11.5938 14.0938 12.375 14.0938 13 13.75C13.5938 13.375 14 12.7188 14 12Z" fill="black"/>
</svg>
